<?xml version="1.0" standalone="no"?>
<!DOCTYPE svg PUBLIC "-//W3C//DTD SVG 20010904//EN"
 "http://www.w3.org/TR/2001/REC-SVG-20010904/DTD/svg10.dtd">
<svg version="1.0" xmlns="http://www.w3.org/2000/svg"
 width="491.000000pt" height="600.000000pt" viewBox="0 0 491.000000 600.000000"
 preserveAspectRatio="xMidYMid meet">

<g transform="translate(0.000000,600.000000) scale(0.100000,-0.100000)"
fill="#000000" stroke="none">
<path d="M2210 5880 c-640 -33 -1278 -182 -1821 -428 l-65 -29 -37 -124 c-215
-724 -230 -1570 -42 -2384 150 -650 448 -1261 866 -1780 348 -432 795 -778
1265 -978 l81 -35 124 57 c225 103 469 254 674 417 234 187 529 507 716 779
518 750 791 1612 816 2575 13 503 -49 964 -188 1395 l-29 92 -123 51 c-729
299 -1476 430 -2237 392z m570 -140 c540 -37 1020 -145 1533 -345 l147 -58 25
-81 c63 -210 106 -419 142 -691 26 -200 26 -814 0 -1025 -58 -477 -169 -910
-326 -1278 -384 -896 -953 -1544 -1682 -1912 -183 -92 -148 -92 -339 4 -565
283 -1029 732 -1400 1353 -368 615 -567 1272 -620 2041 -33 497 22 1052 148
1482 l28 94 85 37 c668 289 1512 430 2259 379z"/>
<path d="M2485 5204 c-38 -80 -72 -150 -74 -155 -2 -6 9 -9 25 -7 25 3 33 15
84 126 31 68 60 124 65 124 5 0 19 -30 32 -66 l22 -66 -38 0 c-30 0 -40 -4
-44 -20 -4 -17 0 -20 26 -20 58 0 74 -10 86 -51 10 -32 16 -39 37 -39 17 0 25
5 22 13 -3 6 -29 78 -58 160 -53 147 -53 147 -84 146 -30 0 -34 -5 -101 -145z"/>
<path d="M2038 5333 c-11 -3 -23 -25 -33 -61 -9 -31 -28 -95 -42 -142 l-26
-85 -66 133 c-61 123 -68 132 -94 132 l-29 0 68 -127 c96 -184 96 -183 121
-183 12 0 25 6 29 12 20 33 111 328 101 327 -7 -1 -20 -3 -29 -6z"/>
<path d="M2125 5243 c10 -177 16 -223 28 -223 32 1 35 15 28 145 -4 86 -3 132
4 137 5 4 31 8 57 8 48 0 78 -18 78 -46 0 -20 -54 -74 -74 -74 -9 0 -16 -5
-16 -11 0 -12 109 -149 119 -148 40 4 39 15 -10 74 -50 61 -57 75 -39 75 6 0
22 11 35 25 29 28 33 79 9 113 -14 20 -23 22 -120 22 l-104 0 5 -97z"/>
<path d="M2797 5288 c-4 -24 -9 -79 -12 -123 -3 -44 -8 -95 -11 -112 -4 -30
-2 -33 19 -33 30 0 33 10 42 142 4 54 10 96 14 93 4 -2 42 -60 84 -128 63
-101 83 -126 105 -130 15 -3 28 -5 29 -4 0 1 7 73 15 160 l14 157 -27 0 -27 0
-7 -115 c-4 -63 -11 -117 -15 -120 -4 -3 -44 52 -87 123 -65 103 -84 128 -105
130 -23 3 -26 -1 -31 -40z"/>
<path d="M1575 5278 c-2 -7 -20 -76 -40 -153 -20 -77 -39 -148 -41 -157 -4
-14 1 -18 20 -18 15 0 27 7 30 18 2 9 16 69 31 132 14 63 28 122 31 130 3 9
19 -9 43 -50 21 -36 36 -68 34 -72 -2 -5 -17 -8 -32 -8 -22 0 -30 -5 -33 -24
-5 -24 -4 -24 47 -19 51 5 52 5 73 -31 16 -27 28 -36 47 -36 15 0 25 4 23 9
-1 5 -41 72 -88 150 -76 126 -88 140 -113 141 -15 0 -30 -6 -32 -12z"/>
<path d="M3213 5265 c-87 -37 -108 -189 -36 -257 51 -49 194 -65 201 -24 4 16
0 18 -28 12 -40 -8 -99 7 -133 34 -49 39 -45 140 7 189 27 26 98 31 150 11 23
-8 31 -8 37 2 24 39 -127 64 -198 33z"/>
<path d="M3475 5238 c-2 -7 -13 -67 -25 -133 -12 -66 -24 -130 -27 -142 -4
-19 -1 -23 20 -23 28 0 33 8 42 76 4 27 9 52 11 55 4 8 156 -19 166 -29 3 -4
0 -38 -7 -75 l-13 -68 26 3 c26 3 27 7 54 148 15 80 27 148 27 153 1 4 -10 7
-23 7 -27 0 -31 -9 -42 -82 -3 -27 -9 -48 -13 -48 -3 0 -41 7 -84 15 -43 8
-80 15 -82 15 -2 0 10 76 20 118 5 18 1 22 -20 22 -14 0 -27 -6 -30 -12z"/>
<path d="M1111 5196 c-39 -14 -81 -59 -81 -86 0 -72 44 -97 138 -80 72 14 92
5 92 -41 0 -39 -36 -60 -114 -66 -57 -5 -63 -7 -58 -26 5 -18 11 -19 65 -13
74 7 127 32 146 67 12 22 13 34 3 67 -16 54 -52 69 -127 54 -61 -13 -81 -9
-96 19 -22 42 21 72 122 85 32 4 49 11 49 20 0 18 -90 18 -139 0z"/>
<path d="M3787 5039 c-21 -84 -36 -153 -35 -155 2 -1 47 -13 100 -27 89 -23
97 -23 101 -7 4 14 -9 20 -69 34 -41 10 -74 22 -74 27 0 6 5 30 11 55 9 34 15
43 28 40 67 -19 105 -27 117 -22 30 11 11 24 -57 41 -49 12 -69 21 -65 31 3 7
8 29 12 48 7 41 9 41 84 21 69 -19 80 -19 80 0 0 13 -14 19 -125 46 -22 6 -47
12 -55 15 -12 3 -23 -27 -53 -147z"/>
<path d="M831 5129 c-15 -6 -21 -14 -17 -24 3 -9 19 -60 36 -115 35 -113 32
-132 -25 -156 -47 -19 -79 -18 -99 5 -10 11 -33 66 -50 123 -28 87 -36 102
-52 100 -10 -2 -21 -6 -23 -8 -8 -7 54 -198 74 -228 28 -41 72 -51 139 -32
113 33 128 84 73 247 -31 93 -33 96 -56 88z"/>
<path d="M4085 5065 c-50 -50 -22 -123 54 -142 55 -13 81 -32 81 -61 0 -16 -5
-33 -12 -40 -21 -21 -80 -13 -135 17 l-53 29 0 -24 c0 -20 10 -30 53 -49 67
-32 138 -34 166 -4 44 47 33 118 -22 141 -116 49 -135 70 -98 107 27 27 54 26
119 -4 52 -24 72 -25 72 -4 0 19 -104 59 -153 59 -38 0 -53 -5 -72 -25z"/>
<path d="M1363 4963 c-7 -2 -13 -14 -13 -25 0 -14 6 -19 23 -16 14 2 22 10 22
22 0 21 -12 28 -32 19z"/>
<path d="M1007 4892 c-27 -6 -19 -48 8 -44 27 5 30 9 19 30 -5 10 -17 16 -27
14z"/>
<path d="M1126 4629 c-52 -9 -75 -40 -76 -101 0 -95 36 -126 141 -120 38 3 69
31 78 75 10 42 -1 103 -22 124 -20 20 -75 30 -121 22z m91 -33 c24 -21 28 -32
28 -76 0 -44 -4 -55 -28 -76 -52 -44 -118 -24 -136 42 -13 49 -4 90 27 114 33
27 75 25 109 -4z"/>
<path d="M1906 4630 c-36 -11 -46 -25 -46 -66 0 -37 29 -54 90 -54 46 0 68
-26 50 -59 -13 -26 -42 -34 -90 -26 -26 4 -40 3 -40 -4 0 -7 25 -11 64 -11 75
0 96 14 96 65 0 41 -20 55 -79 55 -66 0 -93 45 -46 76 18 12 39 15 70 12 51
-6 61 6 14 16 -38 7 -45 7 -83 -4z"/>
<path d="M760 4520 c0 -67 4 -110 10 -110 6 0 10 37 10 90 0 50 3 90 8 90 4 0
23 -40 44 -88 20 -48 42 -87 49 -87 7 0 30 37 50 83 20 45 39 85 43 89 3 3 6
-35 6 -85 0 -55 4 -92 10 -92 6 0 10 44 10 111 0 97 -2 110 -16 107 -10 -2
-33 -39 -57 -95 -22 -51 -43 -90 -48 -88 -4 3 -24 45 -45 95 -28 66 -43 90
-56 90 -16 0 -18 -11 -18 -110z"/>
<path d="M1320 4520 c0 -67 4 -110 10 -110 6 0 10 38 10 93 l1 92 27 -31 c15
-16 48 -58 74 -92 70 -91 78 -85 78 48 0 90 -3 110 -15 110 -11 0 -15 -19 -17
-90 l-3 -90 -69 90 c-38 49 -75 90 -82 90 -11 0 -14 -23 -14 -110z"/>
<path d="M1573 4623 l37 -4 0 -105 c0 -86 3 -104 15 -104 12 0 15 18 15 104
l0 105 38 4 c20 2 -3 4 -53 4 -49 0 -73 -2 -52 -4z"/>
<path d="M2150 4627 c0 -2 -20 -52 -45 -111 -31 -74 -40 -106 -31 -106 8 0 30
39 51 93 20 50 40 95 43 99 4 4 17 -17 29 -47 l21 -55 -34 0 c-19 0 -34 -4
-34 -10 0 -5 18 -10 39 -10 36 0 40 -3 51 -35 6 -19 18 -35 26 -35 11 0 10 9
-5 48 -63 155 -69 167 -90 170 -12 2 -21 1 -21 -1z"/>
<path d="M2320 4520 c0 -67 4 -110 10 -110 6 0 10 43 10 110 0 67 -4 110 -10
110 -6 0 -10 -43 -10 -110z"/>
<path d="M2390 4520 c0 -90 3 -110 15 -110 11 0 15 19 17 92 l3 91 70 -91 c95
-126 105 -124 105 18 0 90 -3 110 -15 110 -11 0 -15 -19 -17 -92 l-3 -93 -70
92 c-95 126 -105 124 -105 -17z"/>
<path d="M2660 4621 l35 -6 3 -102 c1 -57 7 -103 12 -103 5 0 11 46 12 103 l3
102 35 6 c22 4 3 6 -50 6 -53 0 -72 -2 -50 -6z"/>
<path d="M2940 4521 c0 -67 4 -111 10 -111 6 0 10 37 10 92 0 58 4 88 9 83 6
-6 25 -46 44 -90 19 -44 40 -80 47 -80 7 0 29 37 49 82 20 45 39 85 44 89 4 4
7 -34 7 -84 0 -55 4 -92 10 -92 6 0 10 44 10 111 0 100 -2 110 -17 107 -12 -2
-32 -36 -58 -96 -22 -50 -42 -92 -45 -92 -3 0 -23 42 -45 92 -26 60 -46 94
-58 96 -15 3 -17 -7 -17 -107z"/>
<path d="M3230 4520 c0 -91 3 -110 15 -110 12 0 15 19 15 110 0 91 -3 110 -15
110 -12 0 -15 -19 -15 -110z"/>
<path d="M3355 4618 c-11 -6 -25 -19 -32 -27 -18 -23 -16 -122 2 -148 19 -28
84 -46 130 -37 53 10 42 22 -14 16 -43 -4 -53 -1 -75 21 -49 49 -42 135 14
165 14 7 43 11 68 9 23 -3 42 -1 42 4 0 13 -112 10 -135 -3z"/>
<path d="M3540 4520 c0 -112 16 -155 22 -57 l3 52 73 3 72 3 0 -56 c0 -42 3
-55 15 -55 12 0 15 19 15 110 0 91 -3 110 -15 110 -11 0 -15 -12 -15 -50 l0
-51 -72 3 -73 3 -3 48 c-2 26 -7 47 -13 47 -5 0 -9 -48 -9 -110z"/>
<path d="M3790 4520 l0 -110 78 2 c76 2 76 2 15 5 l-63 4 0 44 0 45 55 0 c30
0 55 5 55 10 0 6 -25 10 -55 10 l-55 0 0 45 0 44 63 4 c61 3 61 3 -15 5 l-78
2 0 -110z"/>
<path d="M3990 4520 l0 -110 78 2 c76 2 76 2 15 5 l-63 4 0 104 c0 87 -3 105
-15 105 -12 0 -15 -19 -15 -110z"/>
<path d="M1745 4490 c3 -5 19 -10 36 -10 16 0 29 5 29 10 0 6 -16 10 -36 10
-21 0 -33 -4 -29 -10z"/>
<path d="M2820 4490 c0 -5 16 -10 35 -10 19 0 35 5 35 10 0 6 -16 10 -35 10
-19 0 -35 -4 -35 -10z"/>
<path d="M344 4151 c-7 -7 -4 -180 6 -356 44 -738 233 -1393 574 -1983 369
-641 845 -1106 1418 -1387 128 -63 104 -67 298 38 460 248 863 622 1177 1092
150 226 349 606 441 845 192 500 302 1085 302 1611 l0 146 -2106 -1 c-1158 -1
-2108 -3 -2110 -5z m2110 -92 c3 -17 6 -66 6 -109 0 -129 3 -135 68 -150 231
-51 506 -202 691 -379 61 -58 64 -62 52 -89 -11 -26 -11 -26 5 -7 15 20 16 19
53 -22 47 -53 60 -44 50 34 -4 31 -6 60 -4 63 6 10 136 3 148 -9 7 -7 6 -15
-2 -25 -19 -22 -20 -64 -4 -97 16 -31 30 -35 83 -18 61 18 210 20 264 4 97
-30 176 -10 176 44 0 16 -7 34 -15 41 -28 24 -109 24 -183 1 -84 -25 -130 -27
-161 -5 -17 12 -36 15 -72 11 l-49 -6 17 24 c22 30 81 49 100 33 7 -6 13 -7
13 -3 0 4 6 2 13 -4 8 -6 16 -9 19 -6 3 3 11 -1 18 -10 16 -19 42 -19 104 0
74 23 146 20 187 -8 30 -20 34 -28 34 -66 0 -64 -33 -86 -126 -86 l-69 0 29
-29 c19 -18 40 -29 60 -30 17 0 31 -4 31 -8 0 -5 6 -8 13 -8 14 0 37 -40 37
-63 0 -7 15 -18 33 -26 31 -12 31 -13 10 -21 -23 -9 -32 -30 -13 -30 6 0 10
-13 10 -30 0 -16 -4 -30 -10 -30 -5 0 -10 6 -10 14 0 17 -63 13 -68 -4 -2 -5
-8 -10 -14 -10 -12 0 1 42 16 52 7 5 6 8 -5 8 -8 0 -24 -7 -35 -15 -22 -17
-34 -19 -34 -5 0 5 16 20 35 32 58 38 42 62 -51 79 -33 5 -71 19 -85 29 -24
17 -29 17 -45 4 -11 -8 -14 -17 -9 -20 31 -14 37 -23 32 -46 -8 -29 -41 -70
-51 -61 -3 3 -6 0 -6 -8 0 -8 -5 -20 -12 -27 -9 -9 -14 -7 -23 5 -11 14 -13
13 -19 -11 -8 -31 -29 -30 -34 2 -2 15 -10 21 -25 19 -12 -1 -25 -6 -29 -12
-11 -14 -19 0 -12 19 4 10 16 21 27 25 18 7 18 9 3 23 -9 9 -16 19 -16 23 0
11 45 -7 53 -21 6 -11 13 -12 28 -4 23 13 24 33 3 65 -20 30 -7 58 39 82 44
22 19 28 -46 9 -47 -14 -129 -70 -150 -103 -4 -7 -15 -9 -24 -6 -12 5 -15 2
-10 -8 93 -215 127 -346 127 -492 0 -85 -18 -206 -39 -260 -13 -33 3 -57 37
-57 23 0 32 -18 32 -66 0 -24 5 -34 15 -34 8 0 15 -3 15 -7 0 -5 3 -18 6 -29
7 -27 -18 -36 -156 -60 -119 -20 -146 -39 -41 -29 200 18 424 112 593 248 33
27 62 46 65 43 8 -8 -68 -132 -119 -195 -95 -117 -273 -231 -446 -285 -102
-32 -214 -52 -347 -61 -81 -6 -106 -12 -130 -30 -80 -60 -224 -110 -350 -121
-104 -10 -106 -19 -8 -37 132 -25 256 -31 376 -18 171 19 305 69 426 160 30
23 56 39 59 37 11 -12 -75 -130 -135 -186 -133 -125 -304 -180 -563 -181 -166
-1 -270 14 -510 71 -228 54 -308 64 -469 57 -148 -6 -277 -33 -385 -81 -33
-14 -61 -24 -63 -22 -7 7 131 117 197 156 71 43 181 89 275 117 l60 17 -65 13
c-82 16 -303 18 -392 4 -78 -13 -173 -41 -254 -76 l-59 -25 45 41 c74 66 218
157 302 189 133 51 198 63 337 58 l124 -5 -38 23 c-49 29 -158 39 -369 31
-230 -8 -422 -53 -606 -141 -41 -19 -76 -34 -77 -32 -2 2 32 33 74 70 158 137
370 261 538 316 74 24 93 34 78 43 -25 16 -299 -100 -428 -181 l-50 -31 -3 30
c-2 17 2 36 8 44 7 9 9 38 4 88 l-7 76 39 3 38 3 -3 48 c-4 73 13 87 110 87
60 0 80 -4 87 -16 8 -14 10 -14 21 0 8 9 20 16 28 16 18 0 19 -3 -34 85 -68
114 -143 326 -143 405 0 26 3 28 57 35 116 14 237 76 322 165 49 52 105 139
115 180 4 16 0 12 -10 -10 -21 -46 -75 -132 -81 -127 -2 3 5 27 16 56 l19 51
-47 6 c-25 3 -50 5 -56 4 -5 -1 -45 -35 -87 -76 l-77 -73 6 -55 6 -55 55 25
c82 36 85 24 5 -19 -78 -41 -104 -47 -82 -21 7 9 -4 5 -24 -9 -68 -46 -192
-49 -282 -7 -27 12 -60 22 -72 21 -12 -1 -47 14 -77 33 -109 70 -196 179 -196
247 0 21 -11 56 -25 80 -20 35 -25 58 -25 114 0 39 4 77 10 85 5 8 5 17 0 20
-13 8 31 129 69 188 18 29 35 51 38 49 2 -2 -3 -31 -11 -65 l-14 -61 31 -10
c16 -6 38 -11 48 -11 13 0 19 -10 22 -37 l4 -38 1 42 c2 38 8 47 78 112 42 39
79 71 83 71 4 0 3 26 -3 59 l-9 58 -40 -9 c-84 -19 -85 -3 -4 37 127 62 285
63 387 3 20 -12 49 -20 69 -19 38 2 66 -14 134 -78 55 -51 101 -113 122 -166
13 -30 13 -36 -1 -49 -8 -9 -11 -16 -6 -16 26 0 61 -188 44 -238 -5 -16 -6
-35 -2 -42 13 -20 23 93 17 179 -5 72 -15 108 -51 193 l-16 38 37 16 c21 9 81
27 133 42 85 23 114 26 271 26 l176 1 6 95 c8 134 36 204 51 129z m1048 -122
c26 -5 32 -15 18 -32 -16 -19 -22 -66 -10 -81 5 -6 11 -20 13 -32 2 -12 6 -24
10 -27 4 -3 5 -2 2 2 -8 11 109 33 200 38 55 3 96 0 130 -11 55 -17 136 -14
160 6 8 7 15 25 15 41 0 21 -7 32 -30 44 -39 20 -81 19 -165 -5 -82 -23 -130
-25 -165 -5 -30 17 -74 19 -101 5 -26 -14 -25 5 1 23 11 8 17 16 14 19 -8 8
34 21 45 14 5 -4 11 -2 13 3 1 6 26 -1 53 -15 58 -28 82 -29 149 -9 57 17 114
19 150 5 68 -25 88 -96 40 -141 -22 -21 -35 -24 -100 -24 l-75 0 34 -31 c20
-19 49 -33 74 -37 42 -7 53 -21 62 -75 0 -4 16 -13 34 -21 31 -12 31 -13 10
-21 -24 -10 -30 -25 -13 -35 6 -3 10 -17 10 -31 0 -13 -4 -24 -10 -24 -5 0
-10 6 -10 13 0 7 -9 13 -20 14 -11 1 -20 -3 -20 -9 0 -5 -6 -8 -14 -5 -8 3
-17 1 -19 -6 -2 -7 -7 -9 -11 -6 -4 3 -2 18 3 32 9 22 8 25 -7 20 -9 -3 -23
-11 -30 -16 -7 -5 -16 -7 -20 -3 -7 7 15 28 54 52 34 21 5 47 -67 62 -35 7
-76 21 -90 32 -26 18 -27 19 -44 0 -15 -17 -15 -19 4 -25 12 -3 21 -12 21 -19
0 -26 -22 -76 -31 -70 -5 3 -9 0 -9 -6 0 -6 -4 -8 -10 -5 -5 3 -10 0 -10 -7 0
-7 -5 -20 -10 -28 -8 -13 -11 -12 -23 4 -13 18 -14 18 -21 -8 -8 -31 -29 -30
-34 2 -3 22 -13 28 -26 15 -10 -10 -46 -14 -46 -5 0 12 14 28 33 39 18 9 18
11 2 27 -21 21 -17 27 13 19 12 -3 22 -12 22 -19 0 -19 24 -18 40 1 11 13 10
22 -3 50 -20 43 -15 58 30 85 47 27 36 35 -27 20 -48 -11 -143 -74 -163 -107
-5 -7 -12 -11 -16 -9 -4 3 -18 -4 -29 -14 -12 -11 -25 -20 -29 -19 -4 1 -10 0
-13 -1 -3 -1 -27 -3 -55 -4 -46 -2 -50 -4 -53 -29 -3 -24 -22 -40 -22 -18 0 5
-7 12 -16 15 -10 4 -19 -4 -28 -25 -10 -23 -15 -27 -23 -17 -6 7 -9 23 -7 36
5 28 -19 29 -46 2 -20 -20 -20 -20 -20 -1 0 20 25 51 41 51 14 0 11 27 -6 44
-20 19 -19 26 4 26 20 0 45 -23 34 -33 -3 -4 1 -9 10 -13 9 -3 33 4 53 16 l36
23 -26 26 c-37 37 -76 85 -76 94 0 4 -11 0 -26 -9 -19 -13 -28 -14 -37 -5 -8
8 -8 11 1 11 7 0 12 6 12 14 0 8 6 16 13 19 19 7 1 20 -28 20 -33 0 -33 25 0
33 29 7 28 5 15 38 -15 42 9 42 26 0 l16 -37 25 29 c26 30 26 27 7 -34 -4 -14
5 -25 35 -45 47 -31 55 -35 58 -24 1 4 9 14 16 22 11 11 12 26 5 70 -4 31 -6
59 -4 63 4 7 89 6 128 -1z m-1183 -2653 c25 -32 26 -52 5 -82 -14 -21 -13 -23
11 -44 15 -14 28 -38 32 -60 5 -33 2 -41 -31 -74 -34 -34 -40 -36 -82 -31 -80
9 -122 73 -89 137 9 17 23 34 31 37 13 5 13 8 -1 29 -35 54 0 114 66 114 29 0
42 -6 58 -26z m236 -98 c72 -30 88 -150 31 -236 -36 -55 -146 -125 -146 -92 0
4 13 14 29 24 36 20 59 53 67 99 6 28 4 32 -7 22 -20 -19 -63 -16 -92 7 -53
42 -43 134 17 171 37 23 56 24 101 5z m-447 -83 c2 -46 7 -83 12 -83 6 0 10
-4 10 -10 0 -5 -22 -10 -50 -10 -27 0 -50 5 -50 10 0 6 5 10 10 10 6 0 10 32
10 75 0 43 -4 75 -10 75 -5 0 -10 5 -10 11 0 6 16 9 38 7 l37 -3 3 -82z m742
78 c0 -5 -4 -11 -9 -13 -5 -1 -32 -68 -60 -147 -29 -80 -57 -151 -63 -158 -16
-20 -52 -12 -56 13 -2 11 24 77 57 147 l60 127 -43 0 c-29 0 -52 -7 -70 -21
-30 -24 -33 -13 -8 30 17 31 17 31 105 31 48 0 87 -4 87 -9z"/>
<path d="M1184 3954 c-18 -14 -18 -15 4 -4 12 6 22 13 22 15 0 8 -5 6 -26 -11z"/>
<path d="M2426 3775 c-5 -107 -14 -181 -26 -225 -11 -36 -22 -77 -25 -92 -3
-16 -10 -28 -15 -28 -13 0 -45 -32 -52 -52 -4 -8 -16 -18 -27 -21 -18 -4 -21
-1 -22 31 -2 64 -17 -3 -18 -80 -1 -37 -5 -70 -11 -73 -5 -3 -10 -30 -10 -60
l0 -54 -52 -3 c-52 -3 -53 -4 -67 -43 -7 -22 -15 -85 -18 -140 -5 -127 -8
-141 -33 -148 -16 -4 -20 -13 -20 -44 0 -26 -6 -44 -20 -56 -25 -21 -30 -21
-30 1 -1 16 -1 16 -14 0 -7 -10 -16 -18 -20 -18 -4 0 -23 -12 -42 -26 -19 -15
-36 -25 -38 -23 -2 2 -8 14 -15 26 -18 34 -41 18 -41 -28 0 -27 -4 -39 -14
-39 -9 0 -16 -12 -18 -32 -2 -28 -8 -34 -30 -36 -16 -2 -28 1 -28 7 0 6 -13
11 -30 11 l-30 0 0 -60 0 -60 -59 0 c-51 0 -61 -3 -66 -20 -3 -11 -15 -20 -26
-20 -10 0 -24 -8 -30 -18 -14 -22 -59 -18 -59 4 0 11 -17 14 -70 14 l-71 0 2
-47 c3 -82 2 -83 -35 -83 l-35 0 -3 -83 -3 -84 110 58 c140 73 232 110 370
145 98 26 127 29 270 29 189 0 230 -8 555 -101 273 -79 409 -109 560 -125 170
-17 425 -2 555 33 36 9 38 11 18 19 -19 7 -23 16 -23 54 0 41 -2 45 -24 45
-13 0 -27 6 -29 13 -3 6 -6 -9 -6 -35 -1 -46 -2 -48 -31 -48 -20 0 -30 5 -30
15 0 8 -10 25 -22 38 -63 67 -130 146 -153 180 -14 20 -36 52 -49 71 -13 19
-28 62 -35 95 -10 49 -16 61 -31 61 -14 0 -28 17 -46 55 -15 30 -31 55 -36 55
-4 0 -8 9 -8 20 0 11 -6 20 -14 20 -8 0 -16 5 -18 11 -3 8 -10 5 -21 -6 -19
-18 -25 -17 -123 10 -63 18 -72 36 -81 156 -5 78 -8 89 -24 89 -13 0 -19 7
-19 24 0 30 -22 40 -82 37 -45 -2 -48 0 -48 24 0 16 -6 25 -16 25 -25 0 -44
26 -44 61 0 18 -8 50 -17 70 -17 37 -20 38 -70 39 l-53 0 0 88 c0 53 -7 106
-17 137 -9 30 -20 121 -27 225 l-12 175 -8 -160z"/>
<path d="M1521 3854 c0 -11 3 -14 6 -6 3 7 2 16 -1 19 -3 4 -6 -2 -5 -13z"/>
<path d="M1433 3783 l-92 -36 13 -26 c8 -14 21 -61 31 -104 17 -75 17 -79 -1
-100 l-19 -22 22 19 c21 18 24 17 100 -8 43 -14 88 -26 100 -26 24 0 61 54 87
126 13 39 13 42 -12 75 -31 42 -124 139 -132 138 -3 -1 -46 -17 -97 -36z"/>
<path d="M1188 3793 c7 -3 16 -2 19 1 4 3 -2 6 -13 5 -11 0 -14 -3 -6 -6z"/>
<path d="M839 3633 c-13 -16 -12 -17 4 -4 9 7 17 15 17 17 0 8 -8 3 -21 -13z"/>
<path d="M1329 3473 l-24 -28 28 24 c25 23 32 31 24 31 -2 0 -14 -12 -28 -27z"/>
<path d="M995 3391 c-10 -20 -28 -59 -41 -87 l-23 -52 83 -87 c50 -51 86 -82
90 -76 4 6 14 11 23 11 8 0 42 12 74 26 43 20 58 31 55 43 -3 9 -12 56 -21
105 l-16 89 28 31 28 31 -31 -28 -30 -27 -101 28 -101 29 -17 -36z"/>
<path d="M3203 3384 c9 -11 17 -28 17 -37 0 -25 18 -30 30 -7 6 12 7 20 1 20
-5 0 -12 -8 -14 -17 -4 -15 -5 -14 -6 3 0 11 -11 29 -23 40 -23 19 -23 19 -5
-2z"/>
<path d="M3166 3381 c-4 -6 -2 -11 3 -11 6 0 11 -8 12 -17 0 -10 3 -13 5 -6 8
18 -11 49 -20 34z"/>
<path d="M3406 3348 c3 -5 10 -6 15 -3 13 9 11 12 -6 12 -8 0 -12 -4 -9 -9z"/>
<path d="M3152 3318 c-16 -16 -15 -49 1 -47 26 3 36 -2 31 -16 -4 -8 -1 -15 6
-15 6 0 8 5 5 10 -3 6 0 10 7 10 7 0 2 7 -10 16 -12 8 -27 12 -32 9 -6 -3 -10
0 -10 9 0 8 6 16 13 19 6 2 9 7 6 10 -3 4 -11 1 -17 -5z"/>
<path d="M1641 3304 c0 -11 3 -14 6 -6 3 7 2 16 -1 19 -3 4 -6 -2 -5 -13z"/>
<path d="M3471 3301 c-8 -5 -9 -11 -3 -15 5 -3 12 1 16 9 6 17 6 18 -13 6z"/>
<path d="M3260 3296 c0 -11 91 -57 102 -53 8 3 6 7 -7 11 -11 4 -37 16 -57 27
-21 11 -38 17 -38 15z"/>
<path d="M3164 3230 c1 -10 12 -15 36 -15 29 0 39 -6 57 -34 11 -18 34 -42 50
-52 15 -10 23 -19 17 -19 -5 0 -19 -7 -30 -15 -16 -13 -13 -13 15 1 l34 16
-27 27 c-37 37 -76 85 -76 94 0 4 -9 3 -19 -3 -26 -14 -49 -13 -54 3 -2 7 -3
6 -3 -3z"/>
<path d="M3400 3189 c0 -5 5 -7 10 -4 6 3 10 8 10 11 0 2 -4 4 -10 4 -5 0 -10
-5 -10 -11z"/>
<path d="M3185 3119 c-4 -6 -4 -13 -1 -16 3 -4 6 -1 6 5 0 16 33 15 48 0 8 -8
12 -8 12 -1 0 21 -54 31 -65 12z"/>
<path d="M1418 3103 c6 -2 18 -2 25 0 6 3 1 5 -13 5 -14 0 -19 -2 -12 -5z"/>
<path d="M3201 3095 c1 -19 18 -51 18 -35 0 8 -4 22 -9 30 -5 8 -9 11 -9 5z"/>
<path d="M3247 3079 c7 -7 15 -10 18 -7 3 3 -2 9 -12 12 -14 6 -15 5 -6 -5z"/>
<path d="M3462 3048 c-7 -7 -12 -8 -12 -4 0 5 -7 3 -15 -4 -11 -9 -15 -9 -15
-1 0 7 -5 9 -12 4 -7 -4 -26 -8 -43 -8 -25 0 -31 -5 -33 -27 -2 -15 -9 -29
-15 -31 -7 -2 -5 -3 3 -3 8 1 18 15 21 31 4 19 7 23 8 10 2 -20 2 -20 16 -1 8
11 15 14 15 7 0 -7 5 -9 12 -5 7 4 26 9 42 11 28 3 73 33 50 33 -5 0 -15 -5
-22 -12z"/>
<path d="M3168 3026 c-11 -26 -5 -56 12 -56 5 0 10 5 10 11 0 7 8 18 18 26 15
13 15 13 -5 4 -12 -6 -24 -16 -26 -23 -3 -7 -6 -3 -6 9 -1 12 6 29 15 37 8 9
11 16 4 16 -6 0 -15 -11 -22 -24z"/>
<path d="M3270 2994 c-13 -32 -13 -54 0 -54 5 0 7 6 4 13 -3 8 0 26 5 40 6 15
8 27 6 27 -3 0 -10 -12 -15 -26z"/>
<path d="M3405 3890 c4 -6 11 -8 16 -5 14 9 11 15 -7 15 -8 0 -12 -5 -9 -10z"/>
<path d="M2247 1283 c-13 -13 -7 -62 11 -79 16 -17 17 -16 20 20 5 55 -9 81
-31 59z"/>
<path d="M2224 1124 c-8 -43 5 -93 28 -108 24 -15 38 2 45 50 4 30 0 45 -17
67 -29 37 -48 34 -56 -9z"/>
<path d="M2490 1165 c-25 -31 -25 -155 1 -155 5 0 9 6 8 13 -5 39 21 52 40 20
15 -26 13 52 -2 96 -14 40 -29 48 -47 26z"/>
</g>
</svg>
